 <svg
        width="81"
        height="80"
        viewBox="0 0 81 80"
        fill="none"
        xmlns="http://www.w3.org/2000/svg"
    >
        <path
        fill-rule="evenodd"
        clip-rule="evenodd"
        d="M40.9201 0.288086C41.8814 0.288086 42.8427 0.322665 43.8017 0.394129C44.7607 0.463287 45.715 0.567024 46.6671 0.705341C47.6192 0.845963 48.5644 1.01886 49.5026 1.22633C50.4432 1.43381 51.3722 1.67586 52.2943 1.95019C53.2164 2.22682 54.127 2.53343 55.026 2.87461C55.9251 3.21579 56.8103 3.58924 57.6817 3.99497C58.5531 4.4007 59.4107 4.8364 60.2498 5.30437C61.0912 5.77234 61.9142 6.27028 62.7188 6.79819C63.521 7.32609 64.3071 7.88167 65.0701 8.4649C65.8332 9.05044 66.5755 9.66134 67.2947 10.2999C68.014 10.9362 68.7102 11.6001 69.381 12.2894C70.0518 12.9786 70.6973 13.6887 71.3174 14.4263C71.9375 15.1617 72.53 15.9179 73.0948 16.697C73.6596 17.4739 74.1944 18.2715 74.7016 19.0899C75.2087 19.9083 75.6859 20.7428 76.1308 21.5934C76.5781 22.4464 76.993 23.3132 77.3757 24.1938H65.93C65.386 23.3362 64.8004 22.5086 64.1711 21.711C63.5417 20.9111 62.8732 20.148 62.1655 19.4196C61.4601 18.6911 60.7155 17.9995 59.9363 17.3471C59.1594 16.6947 58.3479 16.0838 57.5065 15.5144C56.6651 14.945 55.7983 14.4194 54.9016 13.9399C54.0071 13.4604 53.0873 13.027 52.1491 12.6421C51.2085 12.2571 50.2518 11.9205 49.2767 11.6347C48.3016 11.3465 47.3149 11.1114 46.3167 10.9269C45.3162 10.7425 44.3111 10.6088 43.2991 10.5258C42.2848 10.4451 41.2705 10.4152 40.2561 10.4382C39.2395 10.4613 38.2275 10.5373 37.2201 10.6641C36.2127 10.7909 35.2122 10.9684 34.2232 11.199C33.2343 11.4295 32.2591 11.7107 31.2978 12.0404C30.3365 12.37 29.396 12.7481 28.4739 13.1769C27.5518 13.6034 26.655 14.0782 25.7813 14.5969C24.9099 15.1179 24.0662 15.6804 23.2501 16.2867C22.4364 16.893 21.6549 17.5408 20.9057 18.2277C20.1564 18.9147 19.4464 19.6386 18.7733 20.3993C18.0978 21.1601 17.4662 21.9508 16.8737 22.7784C16.2813 23.6036 15.7326 24.4566 15.2278 25.3395C14.7252 26.2201 14.2665 27.1261 13.8561 28.0551C13.4458 28.9842 13.0816 29.9316 12.768 30.8998C12.4545 31.8658 12.1917 32.8455 11.9796 33.8391C11.7676 34.8326 11.6062 35.8331 11.4978 36.8428C11.3872 37.8549 11.3319 38.8669 11.3249 39.8835C11.3203 40.9001 11.3687 41.9122 11.4679 42.9242C11.567 43.9339 11.7168 44.939 11.9197 45.9326C12.1226 46.9284 12.3761 47.9128 12.6804 48.881C12.9847 49.8515 13.3374 50.8013 13.7386 51.7349C14.1397 52.6686 14.5892 53.5792 15.0848 54.4644C15.5805 55.3519 16.1199 56.2118 16.7055 57.0417C17.2887 57.8739 17.9134 58.6738 18.5796 59.4392C15.4537 60.8777 12.4914 62.602 9.69741 64.6099C8.32577 62.8717 7.10628 61.0321 6.04355 59.0888C4.97851 57.1454 4.08407 55.1283 3.36021 53.0351C2.63405 50.9419 2.09 48.8026 1.72347 46.6195C1.35923 44.4341 1.17712 42.2349 1.18173 40.0195C1.18173 18.0802 18.9738 0.288086 40.9201 0.288086ZM63.2605 59.4392C66.3864 60.8777 69.3487 62.602 72.145 64.6099C73.5167 62.8717 74.7362 61.0321 75.7989 59.0888C76.8616 57.1454 77.7561 55.1283 78.4799 53.0351C79.2061 50.9419 79.7501 48.8026 80.1167 46.6195C80.4809 44.4341 80.663 42.2349 80.6584 40.0195C80.6584 38.8346 80.6031 37.6612 80.5039 36.5017H57.3843V46.6449H69.7844C69.2404 49.0124 68.4174 51.2808 67.3132 53.4454C66.2089 55.6101 64.858 57.6088 63.2605 59.4392Z"
        fill="white"
        />
        <mask
        id="mask0_118_280"
        style="mask-type: luminance"
        maskUnits="userSpaceOnUse"
        x="0"
        y="0"
        width="81"
        height="80"
        >
        <path d="M0.947998 0H80.948V80H0.947998V0Z" fill="white" />
        </mask>
        <g mask="url(#mask0_118_280)">
        <path
            d="M40.9208 0.288086C41.8821 0.288086 42.8434 0.322665 43.8024 0.394128C44.7613 0.463287 45.7157 0.567024 46.6678 0.70534C47.6199 0.845962 48.565 1.01886 49.5033 1.22633C50.4438 1.43381 51.3729 1.67586 52.295 1.95019C53.2171 2.22682 54.1277 2.53342 55.0267 2.8746C55.9258 3.21578 56.811 3.58924 57.6824 3.99497C58.5538 4.40069 59.4114 4.83639 60.2505 5.30436C61.0919 5.77233 61.9149 6.27027 62.7194 6.79818C63.5217 7.32609 64.3078 7.88166 65.0708 8.46489C65.8338 9.05043 66.5761 9.66133 67.2954 10.2999C68.0146 10.9361 68.7108 11.6001 69.3817 12.2893C70.0525 12.9786 70.698 13.6886 71.3181 14.4263C71.9382 15.1617 72.5307 15.9178 73.0955 16.697C73.6602 17.4739 74.1951 18.2715 74.7022 19.0899C75.2094 19.9083 75.6866 20.7428 76.1315 21.5934C76.5787 22.4464 76.9937 23.3132 77.3763 24.1938H65.9307C65.3866 23.3362 64.8011 22.5086 64.1717 21.711C63.5424 20.9111 62.8739 20.148 62.1662 19.4195C61.4607 18.6911 60.7161 17.9995 59.937 17.3471C59.1601 16.6947 58.3486 16.0838 57.5072 15.5144C56.6658 14.945 55.799 14.4194 54.9022 13.9399C54.0078 13.4604 53.088 13.027 52.1497 12.642C51.2092 12.2571 50.2525 11.9205 49.2774 11.6346C48.3022 11.3465 47.3156 11.1113 46.3174 10.9269C45.3169 10.7425 44.3118 10.6088 43.2998 10.5258C42.2855 10.4451 41.2712 10.4152 40.2568 10.4382C39.2402 10.4613 38.2282 10.5373 37.2208 10.6641C36.2134 10.7909 35.2129 10.9684 34.2239 11.1989C33.235 11.4295 32.2598 11.7107 31.2985 12.0404C30.3372 12.37 29.3967 12.7481 28.4746 13.1769C27.5525 13.6033 26.6557 14.0782 25.782 14.5969C24.9106 15.1179 24.0669 15.6804 23.2508 16.2867C22.4371 16.893 21.6556 17.5408 20.9064 18.2277C20.1572 18.9147 19.4471 19.6385 18.774 20.3993C18.0986 21.16 17.4669 21.9507 16.8745 22.7783C16.282 23.6036 15.7333 24.4566 15.2285 25.3395C14.7259 26.2201 14.2672 27.1261 13.8568 28.0551C13.4465 28.9841 13.0823 29.9316 12.7688 30.8998C12.4552 31.8657 12.1924 32.8455 11.9804 33.839C11.7683 34.8326 11.6069 35.8331 11.4986 36.8428C11.3879 37.8548 11.3326 38.8668 11.3257 39.8835C11.3211 40.9001 11.3695 41.9121 11.4686 42.9241C11.5677 43.9338 11.7176 44.9389 11.9204 45.9325C12.1233 46.9284 12.3769 47.9127 12.6812 48.8809C12.9855 49.8515 13.3382 50.8012 13.7393 51.7349C14.1404 52.6685 14.5899 53.5791 15.0856 54.4643C15.5812 55.3518 16.1206 56.2117 16.7062 57.0416C17.2894 57.8738 17.9141 58.6737 18.5804 59.4391C15.4544 60.8776 12.4921 62.6019 9.69814 64.6098C8.3265 62.8716 7.10701 61.032 6.04428 59.0887C4.97924 57.1453 4.0848 55.1282 3.36094 53.035C2.63478 50.9419 2.09074 48.8026 1.7242 46.6195C1.35996 44.4341 1.17785 42.2348 1.18246 40.0195C1.18246 18.0802 18.9746 0.288086 40.9208 0.288086ZM63.2612 59.4391C66.3871 60.8776 69.3494 62.6019 72.1457 64.6098C73.5173 62.8716 74.7368 61.032 75.7995 59.0887C76.8623 57.1453 77.7567 55.1282 78.4806 53.035C79.2067 50.9419 79.7508 48.8026 80.1173 46.6195C80.4815 44.4341 80.6637 42.2348 80.6591 40.0195C80.6591 38.8346 80.6037 37.6612 80.5046 36.5016H57.385V46.6448H69.7851C69.241 49.0123 68.4181 51.2807 67.3138 53.4454C66.2096 55.61 64.8587 57.6087 63.2612 59.4391Z"
            stroke="white"
            stroke-miterlimit="22.93"
        />
        </g>
        <path
        fill-rule="evenodd"
        clip-rule="evenodd"
        d="M53.101 39.6117C52.7275 39.5771 52.3541 39.5633 51.9783 39.5725C51.6048 39.5794 51.2314 39.6071 50.8602 39.6532C50.4868 39.7016 50.1203 39.7707 49.756 39.8583C49.3918 39.9459 49.0322 40.0543 48.6818 40.1811C48.3291 40.3102 47.9833 40.4554 47.6467 40.6214C47.3101 40.7874 46.9851 40.9695 46.6693 41.17C46.3534 41.3706 46.0468 41.5896 45.7564 41.8224C45.4636 42.0576 45.1847 42.3065 44.9195 42.5717C44.6544 42.8368 44.4032 43.1157 44.1703 43.4085C43.9352 43.7012 43.7162 44.0032 43.5156 44.3214C43.3151 44.6372 43.1307 44.9622 42.9647 45.2988C42.801 45.6354 42.6535 45.9788 42.5244 46.3316C42.3976 46.6843 42.2892 47.0416 42.2016 47.4058C42.1117 47.77 42.0426 48.1389 41.9942 48.51C41.948 48.8812 41.9181 49.2546 41.9112 49.6304C41.9042 50.0039 41.9181 50.3773 41.9504 50.7508C42.3238 50.7853 42.6973 50.7992 43.073 50.7923C43.4488 50.7853 43.8199 50.7577 44.1934 50.7093C44.5645 50.6632 44.9334 50.594 45.2976 50.5064C45.6618 50.4188 46.0192 50.3105 46.3719 50.1837C46.7246 50.0569 47.0704 49.9093 47.4069 49.7434C47.7412 49.5797 48.0686 49.3953 48.3844 49.1947C48.7025 48.9942 49.0068 48.7775 49.2996 48.5423C49.59 48.3072 49.869 48.0582 50.1341 47.7931C50.4015 47.528 50.6505 47.2491 50.8856 46.9563C51.1184 46.6658 51.3374 46.3615 51.538 46.0434C51.7409 45.7276 51.923 45.4025 52.089 45.066C52.2549 44.7294 52.4002 44.3859 52.5293 44.0332C52.6561 43.6805 52.7644 43.3209 52.852 42.9566C52.9419 42.5924 53.0088 42.2259 53.0572 41.8547C53.1056 41.4813 53.1332 41.1078 53.1402 40.7343C53.1471 40.3586 53.1356 39.9851 53.101 39.6117Z"
        fill="#C4D8C0"
        />
        <path
        fill-rule="evenodd"
        clip-rule="evenodd"
        d="M28.6111 39.6114C28.9846 39.5768 29.358 39.5653 29.7338 39.5722C30.1072 39.5791 30.4807 39.6068 30.8518 39.6552C31.223 39.7036 31.5918 39.7705 31.9561 39.8604C32.3203 39.948 32.6776 40.0563 33.0303 40.1831C33.383 40.3122 33.7265 40.4575 34.0631 40.6234C34.3974 40.7894 34.7247 40.9715 35.0405 41.1721C35.3564 41.3726 35.6607 41.5917 35.9534 41.8268C36.2439 42.0596 36.5228 42.3109 36.7879 42.5737C37.053 42.8388 37.302 43.1177 37.5371 43.4105C37.7723 43.7033 37.989 44.0076 38.1895 44.3234C38.3924 44.6392 38.5745 44.9643 38.7405 45.3008C38.9042 45.6374 39.0517 45.9809 39.1785 46.3336C39.3076 46.6863 39.4159 47.0436 39.5035 47.4079C39.5911 47.7721 39.6603 48.1386 39.7087 48.5098C39.7571 48.8832 39.7848 49.2544 39.7917 49.6301C39.7986 50.0036 39.7848 50.3771 39.7525 50.7505C39.3791 50.7851 39.0056 50.7989 38.6298 50.7897C38.2564 50.7828 37.8829 50.7551 37.5118 50.7067C37.1406 50.6583 36.7718 50.5914 36.4076 50.5038C36.0433 50.4139 35.686 50.3056 35.3333 50.1788C34.9829 50.052 34.6371 49.9045 34.3005 49.7385C33.9663 49.5748 33.6389 49.3904 33.3231 49.1898C33.0073 48.9893 32.703 48.7703 32.4102 48.5374C32.1197 48.3023 31.8408 48.0533 31.5757 47.7882C31.3106 47.5231 31.0616 47.2442 30.8265 46.9514C30.5914 46.661 30.3747 46.3567 30.1741 46.0408C29.9712 45.7227 29.7891 45.3977 29.6231 45.0611C29.4595 44.7245 29.3119 44.381 29.1851 44.0283C29.056 43.6779 28.9477 43.3183 28.8601 42.9541C28.7725 42.5898 28.7033 42.2233 28.6549 41.8521C28.6065 41.481 28.5788 41.1075 28.5719 40.7318C28.565 40.3583 28.5788 39.9849 28.6111 39.6114Z"
        fill="#C4D8C0"
        />
        <path
        fill-rule="evenodd"
        clip-rule="evenodd"
        d="M40.8563 17.8174C41.1444 18.0571 41.4188 18.313 41.6793 18.5827C41.9398 18.8525 42.1841 19.136 42.4123 19.4334C42.6406 19.7308 42.8527 20.0397 43.0486 20.3578C43.2422 20.6782 43.4198 21.0079 43.5788 21.3491C43.7379 21.6879 43.8785 22.0337 43.9984 22.3887C44.1206 22.7438 44.222 23.1057 44.3027 23.4699C44.3834 23.8365 44.4456 24.2053 44.4871 24.5788C44.5263 24.9499 44.547 25.3257 44.547 25.6991C44.547 26.0749 44.5263 26.4483 44.4871 26.8218C44.4456 27.1929 44.3834 27.5618 44.3027 27.9283C44.222 28.2949 44.1206 28.6545 43.9984 29.0095C43.8785 29.3645 43.7379 29.7126 43.5788 30.0515C43.4198 30.3904 43.2422 30.72 43.0486 31.0404C42.8527 31.3609 42.6406 31.6698 42.4123 31.9649C42.1841 32.2622 41.9398 32.5458 41.6793 32.8155C41.4188 33.0852 41.1444 33.3411 40.8563 33.5809C40.5681 33.3411 40.2961 33.0852 40.0356 32.8155C39.7751 32.5458 39.5308 32.2622 39.3025 31.9649C39.0743 31.6675 38.8622 31.3609 38.6663 31.0404C38.4726 30.72 38.2951 30.3904 38.1361 30.0515C37.977 29.7103 37.8364 29.3645 37.7165 29.0095C37.5966 28.6545 37.4952 28.2949 37.4122 27.9283C37.3315 27.5618 37.2716 27.1929 37.2301 26.8218C37.1886 26.4483 37.1678 26.0749 37.1678 25.6991C37.1678 25.3257 37.1886 24.9522 37.2301 24.5788C37.2716 24.2053 37.3315 23.8365 37.4122 23.4699C37.4952 23.1057 37.5966 22.7438 37.7165 22.3911C37.8364 22.036 37.977 21.6879 38.1361 21.3491C38.2951 21.0102 38.4726 20.6782 38.6663 20.3601C38.8622 20.0397 39.0743 19.7308 39.3025 19.4334C39.5308 19.136 39.7751 18.8525 40.0356 18.5827C40.2961 18.313 40.5681 18.0571 40.8563 17.8174Z"
        fill="#C4D8C0"
        />
        <path
        d="M39.8268 50.7622H41.8831V59.3655H39.8268V50.7622Z"
        fill="#C4D8C0"
        />
        <path
        fill-rule="evenodd"
        clip-rule="evenodd"
        d="M61.4984 61.3087C58.4025 59.9463 55.2027 58.902 51.8993 58.1782C48.5958 57.4543 45.2532 57.0624 41.8713 57.0071H39.981C37.4175 57.0509 34.8725 57.286 32.3459 57.7148C29.8193 58.1436 27.3389 58.7591 24.9068 59.5613C22.4724 60.3636 20.1118 61.3456 17.8273 62.5052C15.5405 63.6647 13.3551 64.9879 11.2688 66.4772C11.7345 66.9981 12.2117 67.5053 12.7027 68.0009C13.1937 68.4966 13.6986 68.9784 14.2149 69.4487C14.7313 69.9166 15.2592 70.3708 15.801 70.8134C16.3404 71.2537 16.8914 71.6802 17.4562 72.0928C18.0186 72.5055 18.5927 72.902 19.1759 73.2846C19.7591 73.665 20.3539 74.0315 20.9556 74.3819C21.5595 74.7323 22.1704 75.0666 22.7929 75.387C23.413 75.7052 24.0423 76.0072 24.6786 76.2907C25.3148 76.5766 25.958 76.8463 26.6104 77.0976C27.2605 77.3488 27.9175 77.5817 28.5814 77.7984C29.243 78.0151 29.9116 78.2156 30.587 78.3954C31.2601 78.5775 31.9379 78.7412 32.6203 78.8865C33.3026 79.034 33.9873 79.1608 34.6766 79.2714C35.3658 79.3798 36.0574 79.472 36.7513 79.5458C37.4452 79.6195 38.1391 79.6749 38.8376 79.7094C39.5338 79.7463 40.23 79.7648 40.9285 79.7648C41.627 79.7648 42.3232 79.7463 43.0194 79.7094C43.7155 79.6749 44.4117 79.6195 45.1056 79.5458C45.7995 79.472 46.4911 79.3798 47.1804 79.2714C47.8697 79.1608 48.5543 79.034 49.2367 78.8865C49.919 78.7412 50.5968 78.5775 51.2699 78.3954C51.9454 78.2156 52.6116 78.0151 53.2755 77.7984C53.9394 77.5817 54.5964 77.3488 55.2465 77.0976C55.8966 76.8463 56.5421 76.5766 57.1784 76.2907C57.8146 76.0072 58.444 75.7052 59.0641 75.387C59.6842 75.0666 60.2974 74.7323 60.9014 74.3819C61.5031 74.0315 62.0978 73.665 62.681 73.2846C63.2643 72.902 63.8383 72.5055 64.4008 72.0928C64.9633 71.6802 65.5165 71.2537 66.056 70.8134C66.5977 70.3708 67.1256 69.9166 67.642 69.4487C68.1584 68.9784 68.6632 68.4966 69.1543 68.0009C69.6453 67.5053 70.1225 66.9981 70.5858 66.4772C67.7365 64.4416 64.7051 62.7172 61.4984 61.3087Z"
        fill="#C4D8C0"
        />
        <path
        fill-rule="evenodd"
        clip-rule="evenodd"
        d="M53.1011 29.155C52.7277 29.1204 52.3542 29.1089 51.9785 29.1158C51.6027 29.1227 51.2293 29.1504 50.8581 29.1965C50.487 29.2449 50.1181 29.3141 49.7539 29.4017C49.3897 29.4916 49.03 29.5976 48.6773 29.7267C48.3246 29.8535 47.9811 30.001 47.6446 30.167C47.308 30.3307 46.9806 30.5151 46.6648 30.7157C46.3467 30.9162 46.0424 31.1352 45.7496 31.3704C45.4592 31.6055 45.1802 31.8545 44.9151 32.1196C44.6477 32.3847 44.3987 32.6636 44.1636 32.9564C43.9308 33.2492 43.7118 33.5535 43.5112 33.8693C43.3083 34.1874 43.1262 34.5125 42.9602 34.849C42.7943 35.1856 42.649 35.5314 42.5222 35.8841C42.3931 36.2368 42.2848 36.5941 42.1972 36.9607C42.1096 37.3249 42.0404 37.6914 41.992 38.0649C41.9459 38.436 41.9183 38.8095 41.9113 39.1853C41.9044 39.5587 41.9159 39.9345 41.9505 40.3079C42.324 40.3425 42.6997 40.3563 43.0732 40.3494C43.449 40.3425 43.8224 40.3148 44.1936 40.2664C44.567 40.218 44.9359 40.1512 45.3001 40.0613C45.6643 39.9737 46.0216 39.8653 46.3744 39.7385C46.7271 39.6094 47.0728 39.4642 47.4094 39.2982C47.746 39.1322 48.0733 38.9501 48.3892 38.7473C48.705 38.5467 49.0093 38.33 49.3021 38.0949C49.5948 37.8597 49.8738 37.6107 50.1389 37.3456C50.404 37.0782 50.6552 36.7993 50.8904 36.5088C51.1232 36.2161 51.3422 35.9095 51.5428 35.5936C51.7433 35.2778 51.9278 34.9505 52.0937 34.6139C52.2574 34.2773 52.4049 33.9315 52.5317 33.5788C52.6608 33.2261 52.7669 32.8688 52.8568 32.5046C52.9444 32.138 53.0112 31.7715 53.0596 31.398C53.1081 31.0269 53.1357 30.6534 53.1426 30.2777C53.1496 29.9042 53.1357 29.5285 53.1011 29.155Z"
        fill="#C4D8C0"
        />
        <path
        fill-rule="evenodd"
        clip-rule="evenodd"
        d="M28.6111 29.155C28.9846 29.1204 29.3603 29.1089 29.7338 29.1158C30.1095 29.1227 30.483 29.1504 30.8542 29.1988C31.2253 29.2472 31.5941 29.3164 31.9584 29.404C32.3226 29.4916 32.6799 29.5999 33.0326 29.729C33.3853 29.8558 33.7288 30.0033 34.0654 30.1693C34.402 30.333 34.7293 30.5174 35.0451 30.718C35.361 30.9208 35.6653 31.1375 35.958 31.3727C36.2508 31.6078 36.5297 31.8568 36.7925 32.1219C37.0576 32.387 37.3089 32.6659 37.5418 32.9587C37.7769 33.2515 37.9936 33.5558 38.1965 33.8716C38.397 34.1897 38.5791 34.5148 38.7451 34.8513C38.9088 35.1879 39.0563 35.5337 39.1831 35.8864C39.3099 36.2391 39.4182 36.5964 39.5058 36.9607C39.5958 37.3249 39.6626 37.6937 39.711 38.0649C39.7594 38.436 39.7848 38.8095 39.7917 39.1853C39.7986 39.561 39.7848 39.9345 39.7525 40.3079C39.3791 40.3402 39.0033 40.354 38.6298 40.3471C38.2541 40.3402 37.8806 40.3102 37.5095 40.2641C37.1383 40.2157 36.7695 40.1466 36.4053 40.0566C36.041 39.969 35.6837 39.8607 35.331 39.7339C34.9783 39.6048 34.6348 39.4573 34.2982 39.2936C33.9617 39.1276 33.6366 38.9432 33.3208 38.7426C33.005 38.5421 32.7007 38.3231 32.4079 38.0879C32.1151 37.8528 31.8362 37.6038 31.5711 37.3387C31.306 37.0736 31.057 36.7947 30.8219 36.5019C30.589 36.2091 30.37 35.9048 30.1695 35.589C29.9689 35.2732 29.7868 34.9459 29.6208 34.6093C29.4549 34.2727 29.3096 33.9292 29.1805 33.5765C29.0537 33.2238 28.9454 32.8642 28.8578 32.5C28.7702 32.1357 28.701 31.7692 28.6549 31.398C28.6065 31.0246 28.5788 30.6511 28.5719 30.2777C28.565 29.9019 28.5788 29.5285 28.6111 29.155Z"
        fill="#C4D8C0"
        />
        <path
        d="M39.8268 50.7622H41.8831V59.3655H39.8268V50.7622Z"
        fill="#C4D8C0"
        />
</svg>